<svg width="48" height="48" viewBox="0 0 48 48" fill="none" xmlns="http://www.w3.org/2000/svg">
<path fill-rule="evenodd" clip-rule="evenodd" d="M40.0688 41.827C44.9389 37.4345 48 31.0747 48 24C48 10.7452 37.2548 0 24 0C10.7452 0 0 10.7452 0 24C0 31.0697 3.05678 37.4254 7.92076 41.8176C7.93866 41.8344 7.95695 41.8509 7.97562 41.867C12.2246 45.6803 17.8414 48 24 48C30.1635 48 35.7844 45.6766 40.0346 41.8578C40.0461 41.8477 40.0576 41.8374 40.0688 41.827ZM24 3.69231C12.7844 3.69231 3.69231 12.7844 3.69231 24C3.69231 29.1774 5.62978 33.9022 8.81923 37.4891C10.2734 35.3901 12.1526 33.6078 14.3447 32.2634C15.2409 31.7138 16.1786 31.2439 17.147 30.857C14.5745 28.8286 12.9231 25.6841 12.9231 22.1538C12.9231 16.0362 17.8824 11.0769 24 11.0769C30.1176 11.0769 35.0769 16.0362 35.0769 22.1538C35.0769 25.6841 33.4255 28.8286 30.853 30.857C31.8213 31.244 32.7589 31.7138 33.655 32.2633C35.8472 33.6078 37.7264 35.3902 39.1807 37.4892C42.3702 33.9024 44.3077 29.1774 44.3077 24C44.3077 12.7844 35.2156 3.69231 24 3.69231ZM36.4481 40.0464C35.2478 38.1692 33.6347 36.5823 31.7247 35.4109C29.4002 33.9853 26.7267 33.2308 23.9999 33.2308C21.2732 33.2308 18.5995 33.9853 16.2751 35.4109C14.3651 36.5823 12.7521 38.1692 11.5517 40.0462C14.9898 42.7173 19.3092 44.3077 24 44.3077C28.6908 44.3077 33.0101 42.7173 36.4481 40.0464ZM24 29.5385C28.0784 29.5385 31.3846 26.2323 31.3846 22.1538C31.3846 18.0754 28.0784 14.7692 24 14.7692C19.9216 14.7692 16.6154 18.0754 16.6154 22.1538C16.6154 26.2323 19.9216 29.5385 24 29.5385Z" fill="#696969"/>
</svg>
