<svg width="33" height="423" viewBox="0 0 33 423" fill="none" xmlns="http://www.w3.org/2000/svg">
<path fill-rule="evenodd" clip-rule="evenodd" d="M30.7 409.32C32.5884 409.32 33.3305 411.768 31.7597 412.817L17.6102 422.259C16.938 422.708 16.062 422.708 15.3898 422.259L1.24029 412.817C-0.330474 411.768 0.411596 409.32 2.3 409.32C3.35437 409.32 4.2091 408.465 4.2091 407.41L4.20911 2C4.20911 0.895429 5.10455 -1.39419e-06 6.20911 -1.34591e-06L26.7909 -4.46254e-07C27.8955 -3.97972e-07 28.7909 0.895427 28.7909 2L28.7909 407.41C28.7909 408.465 29.6456 409.32 30.7 409.32Z" fill="url(#paint0_linear_304_129)"/>
<defs>
<linearGradient id="paint0_linear_304_129" x1="-3.99985" y1="310.82" x2="-3.99983" y2="-1.79216e-06" gradientUnits="userSpaceOnUse">
<stop stop-color="#EECECE"/>
<stop offset="1" stop-color="#EECECE" stop-opacity="0"/>
</linearGradient>
</defs>
</svg>
