<svg width="72" height="72" viewBox="0 0 72 72" fill="none" xmlns="http://www.w3.org/2000/svg">
<path d="M53.1429 29.6955C54.2492 28.6394 54.2899 26.8865 53.2339 25.7802C52.1779 24.6739 50.425 24.6332 49.3187 25.6892L30.923 43.2486L22.6813 35.3815C21.575 34.3255 19.8221 34.3662 18.7661 35.4725C17.7101 36.5788 17.7508 38.3317 18.8571 39.3877L29.0109 49.0801C30.081 50.1015 31.7649 50.1015 32.835 49.0801L53.1429 29.6955Z" fill="#3F8AE3"/>
<path fill-rule="evenodd" clip-rule="evenodd" d="M36 0C16.1178 0 0 16.1178 0 36C0 55.8823 16.1178 72 36 72C55.8823 72 72 55.8823 72 36C72 16.1178 55.8823 0 36 0ZM5.53846 36C5.53846 19.1766 19.1766 5.53846 36 5.53846C52.8234 5.53846 66.4615 19.1766 66.4615 36C66.4615 52.8234 52.8234 66.4615 36 66.4615C19.1766 66.4615 5.53846 52.8234 5.53846 36Z" fill="#3F8AE3"/>
</svg>
