<svg width="64" height="64" viewBox="0 0 64 64" fill="none" xmlns="http://www.w3.org/2000/svg">
<path d="M33.5782 21.0299C27.7215 21.0299 22.9156 25.4405 22.4284 31.0584C22.4062 31.3148 22.6126 31.5299 22.87 31.5299C23.2664 31.5299 23.471 32.0037 23.1991 32.2923L18.7277 37.0374C17.9382 37.8753 16.6061 37.8753 15.8165 37.0374L11.3669 32.3154C11.0868 32.0181 11.2976 31.5299 11.7061 31.5299C11.9594 31.5299 12.1658 31.3261 12.177 31.073C12.6718 19.9052 22.0642 11 33.5782 11C45.4091 11 55 20.402 55 32C55 43.598 45.4091 53 33.5782 53H10C8.89543 53 8 52.1046 8 51V44.9701C8 43.8656 8.89543 42.9701 10 42.9701H33.5782C39.7586 42.9701 44.7687 38.0586 44.7687 32C44.7687 25.9414 39.7586 21.0299 33.5782 21.0299Z" fill="url(#paint0_radial_269_53)"/>
<defs>
<radialGradient id="paint0_radial_269_53" cx="0" cy="0" r="1" gradientUnits="userSpaceOnUse" gradientTransform="translate(31.6599 32.3134) rotate(128.179) scale(38.2775 84.3895)">
<stop offset="0.260417" stop-color="#4F7ABB" stop-opacity="0.57"/>
<stop offset="1" stop-color="#FF9E30" stop-opacity="0"/>
</radialGradient>
</defs>
</svg>
