<svg width="72" height="72" viewBox="0 0 72 72" fill="none" xmlns="http://www.w3.org/2000/svg">
<path d="M49.0351 22.9649C50.1165 24.0464 50.1165 25.7998 49.0351 26.8812L39.9163 36L49.0351 45.1188C50.1165 46.2002 50.1165 47.9536 49.0351 49.0351C47.9536 50.1165 46.2002 50.1165 45.1188 49.0351L36 39.9163L26.8812 49.0351C25.7998 50.1165 24.0464 50.1165 22.9649 49.0351C21.8835 47.9536 21.8835 46.2002 22.9649 45.1188L32.0837 36L22.9649 26.8812C21.8835 25.7998 21.8835 24.0464 22.9649 22.9649C24.0464 21.8835 25.7998 21.8835 26.8812 22.9649L36 32.0837L45.1188 22.9649C46.2002 21.8835 47.9536 21.8835 49.0351 22.9649Z" fill="#CE3E3E"/>
<path fill-rule="evenodd" clip-rule="evenodd" d="M0 36C0 16.1178 16.1178 0 36 0C55.8823 0 72 16.1178 72 36C72 55.8823 55.8823 72 36 72C16.1178 72 0 55.8823 0 36ZM36 5.53846C19.1766 5.53846 5.53846 19.1766 5.53846 36C5.53846 52.8234 19.1766 66.4615 36 66.4615C52.8234 66.4615 66.4615 52.8234 66.4615 36C66.4615 19.1766 52.8234 5.53846 36 5.53846Z" fill="#CE3E3E"/>
</svg>
